PathFileType	4	(X/Y/Z)	C:\Git\research_data\torsion_deformities_healthy_kinematics\simulations\P03\pre\Static01\markers_HJC.trc
DataRate	CameraRate	NumFrames	NumMarkers	Units	OrigDataRate	OrigDataStartFrame	OrigNumFrames
150	150	9	38	mm	150	76	150
Frame#	Time	C7			T10			CLAV			STRN			RBAK			SACR			LASI			RASI			LT1			LT2			LT3			LS1			LS2			LS3			LHEE			LTOE			RT1			RT2			RT3			RS1			RS2			RS3			RHEE			RTOE			LKNE			LKNM			LANK			LANM			RKNM			RKNE			RANM			RANK			LKJC			RKJC			LAJC			RAJC			LHJC			RHJC		
		X1	Y1	Z1	X2	Y2	Z2	X3	Y3	Z3	X4	Y4	Z4	X5	Y5	Z5	X6	Y6	Z6	X7	Y7	Z7	X8	Y8	Z8	X9	Y9	Z9	X10	Y10	Z10	X11	Y11	Z11	X12	Y12	Z12	X13	Y13	Z13	X14	Y14	Z14	X15	Y15	Z15	X16	Y16	Z16	X17	Y17	Z17	X18	Y18	Z18	X19	Y19	Z19	X20	Y20	Z20	X21	Y21	Z21	X22	Y22	Z22	X23	Y23	Z23	X24	Y24	Z24	X25	Y25	Z25	X26	Y26	Z26	X27	Y27	Z27	X28	Y28	Z28	X29	Y29	Z29	X30	Y30	Z30	X31	Y31	Z31	X32	Y32	Z32	X33	Y33	Z33	X34	Y34	Z34	X35	Y35	Z35	X36	Y36	Z36	X37	Y37	Z37	X38	Y38	Z38	

76	0.500000	445.405823	1274.560425	-966.152649	446.695068	1095.883789	-914.633667	429.594238	1211.496460	-1096.443481	425.148926	1158.165771	-1128.293091	544.152405	1178.144531	-934.422607	430.967316	875.414246	-914.485474	279.666473	870.772034	-1070.682129	522.677795	877.999695	-1122.073486	243.794830	586.511230	-1126.661987	231.620331	474.735352	-1078.057861	276.536682	532.131165	-1201.816772	283.083130	217.475296	-1032.361938	343.014618	148.493851	-950.117920	254.440689	132.134857	-1061.423950	368.048798	41.733814	-973.723206	262.222778	41.307251	-1083.071777	593.606750	607.208801	-1131.628418	586.993835	508.670746	-1055.508301	583.833923	534.433044	-1197.091675	587.731262	266.449158	-1089.093506	562.608643	216.850983	-981.677979	582.743652	176.198273	-1116.880615	500.205780	44.932205	-981.769714	570.523499	41.737534	-1123.321045	268.023071	433.053406	-1146.632202	367.441071	421.864441	-1163.332886	304.870972	49.706333	-994.118103	356.950592	47.441051	-1044.861694	466.984833	424.383911	-1164.937012	569.667114	439.785797	-1164.745483	490.700317	52.850506	-1062.658325	552.316223	47.564522	-1019.023438	317.732056	427.458923	-1154.982544	518.325989	432.084869	-1164.841309	330.910767	48.573692	-1019.489868	521.508301	50.207516	-1040.840820	327.583278	786.753911	-1024.878161	502.248790	791.948826	-1061.815937	
77	0.506667	445.482178	1274.518066	-966.175110	446.704895	1095.829956	-914.634644	429.664368	1211.421143	-1096.462891	425.184662	1158.108887	-1128.295898	544.248596	1178.060791	-934.485779	430.880066	875.356995	-914.459656	279.674835	870.775513	-1070.744507	522.728394	877.875916	-1121.980957	243.664688	586.523621	-1126.652222	231.515030	474.751221	-1077.998779	276.381409	532.120178	-1201.815186	283.034607	217.472748	-1032.330933	343.025879	148.516464	-950.118896	254.380096	132.125076	-1061.351440	368.043640	41.741940	-973.726624	262.176147	41.298454	-1083.037964	593.661865	607.096497	-1131.641602	587.022583	508.491333	-1055.599854	583.907227	534.381592	-1197.162598	587.760437	266.393463	-1089.201538	562.657349	216.837982	-981.789673	582.771729	176.134659	-1116.950928	500.193512	44.938187	-981.777588	570.527832	41.740032	-1123.319458	267.926086	433.015442	-1146.501831	367.280701	421.854095	-1163.372192	304.856445	49.689777	-994.103027	356.922058	47.467064	-1044.852417	467.079620	424.312378	-1165.165527	569.732300	439.718781	-1164.907349	490.700104	52.848980	-1062.681030	552.315063	47.566940	-1019.039368	317.603394	427.434784	-1154.937012	518.405945	432.015564	-1165.036499	330.889252	48.578419	-1019.477722	521.507568	50.207962	-1040.860229	327.520351	786.736102	-1024.903519	502.215895	791.839540	-1061.729886	
78	0.513333	445.556183	1274.473022	-966.193176	446.717773	1095.772217	-914.636353	429.734467	1211.340454	-1096.485596	425.219391	1158.043457	-1128.299072	544.333496	1177.968750	-934.531372	430.776733	875.299866	-914.421570	279.682587	870.784180	-1070.817627	522.784180	877.742981	-1121.886230	243.529449	586.539185	-1126.650757	231.416077	474.770477	-1077.924072	276.224152	532.109375	-1201.815796	282.966156	217.464066	-1032.303589	343.005554	148.537109	-950.107910	254.315872	132.108994	-1061.291260	368.031097	41.750866	-973.725098	262.127533	41.288055	-1083.001465	593.715454	606.984802	-1131.660034	587.060730	508.308472	-1055.702759	583.979309	534.329041	-1197.244019	587.791748	266.336121	-1089.314209	562.701599	216.835281	-981.896362	582.800415	176.068115	-1117.025879	500.181519	44.945118	-981.785645	570.533691	41.743114	-1123.317627	267.794495	433.028900	-1146.457275	367.134583	421.857147	-1163.391724	304.834229	49.671886	-994.083130	356.886108	47.494228	-1044.835083	467.185242	424.239319	-1165.401123	569.795227	439.646088	-1165.087891	490.703186	52.847046	-1062.704834	552.315125	47.568600	-1019.056946	317.464539	427.443024	-1154.924561	518.490234	431.942688	-1165.244507	330.860168	48.583057	-1019.459106	521.509155	50.207825	-1040.880859	327.450753	786.721086	-1024.932123	502.180338	791.722734	-1061.637748	
79	0.520000	445.629700	1274.425293	-966.211670	446.734894	1095.712402	-914.638916	429.803986	1211.252075	-1096.512451	425.256439	1157.963623	-1128.305786	544.407593	1177.871338	-934.566101	430.659302	875.243225	-914.371033	279.689514	870.796265	-1070.899414	522.843750	877.604797	-1121.789551	243.393829	586.556335	-1126.660278	231.322464	474.790436	-1077.836182	276.068634	532.099854	-1201.821167	282.879364	217.450012	-1032.281616	342.956940	148.556854	-950.084595	254.250229	132.085846	-1061.245239	368.013092	41.760273	-973.719727	262.080444	41.272625	-1082.964478	593.765381	606.876221	-1131.680420	587.102478	508.128143	-1055.808838	584.046326	534.276062	-1197.327271	587.824158	266.279480	-1089.427368	562.738892	216.841354	-981.992798	582.829346	176.000381	-1117.101318	500.170166	44.952610	-981.793457	570.541138	41.746342	-1123.315674	267.635254	433.067535	-1146.474243	367.006073	421.873199	-1163.394775	304.802399	49.656097	-994.057495	356.844452	47.521797	-1044.811035	467.288055	424.167023	-1165.628296	569.856018	439.569489	-1165.275635	490.708374	52.844498	-1062.726685	552.316589	47.569221	-1019.074707	317.320679	427.470367	-1154.934570	518.572021	431.868256	-1165.452026	330.823425	48.588947	-1019.434204	521.512512	50.206860	-1040.900757	327.376459	786.707931	-1024.963087	502.143265	791.601555	-1061.540310	
80	0.526667	445.704865	1274.375000	-966.236450	446.756104	1095.651733	-914.643494	429.873718	1211.154419	-1096.545166	425.298096	1157.866211	-1128.321045	544.473633	1177.772339	-934.598450	430.531158	875.185242	-914.311707	279.694824	870.809326	-1070.985107	522.904419	877.466248	-1121.691772	243.261414	586.572571	-1126.681274	231.225983	474.807678	-1077.746460	275.919373	532.092407	-1201.834229	282.777924	217.432343	-1032.266113	342.887665	148.576981	-950.051636	254.184906	132.055466	-1061.214233	367.990936	41.769611	-973.711853	262.036133	41.250687	-1082.929199	593.809143	606.772827	-1131.698608	587.140442	507.956726	-1055.909058	584.105957	534.223877	-1197.405884	587.856628	266.225922	-1089.537476	562.769104	216.852081	-982.076782	582.857849	175.933548	-1117.172607	500.159973	44.960106	-981.800659	570.550110	41.749203	-1123.313843	267.475494	433.090179	-1146.500244	366.892792	421.895142	-1163.387939	304.759888	49.643997	-994.026917	356.799286	47.548920	-1044.783203	467.376007	424.096527	-1165.834717	569.915344	439.492004	-1165.457886	490.714325	52.841373	-1062.744507	552.319031	47.568741	-1019.090881	317.184143	427.492645	-1154.944092	518.645691	431.794250	-1165.646362	330.779572	48.596458	-1019.405029	521.516663	50.205055	-1040.917603	327.299624	786.694586	-1024.995678	502.105496	791.479221	-1061.440880	
81	0.533333	445.783203	1274.322388	-966.272339	446.779663	1095.591064	-914.651550	429.945618	1211.047974	-1096.585693	425.345856	1157.753052	-1128.348267	544.534973	1177.675293	-934.633240	430.395630	875.123230	-914.250061	279.697235	870.821411	-1071.070435	522.962708	877.331970	-1121.593994	243.133957	586.586121	-1126.713013	231.111740	474.819244	-1077.676758	275.780396	532.087708	-1201.858032	282.667450	217.413345	-1032.258301	342.808563	148.598724	-950.013794	254.120728	132.018982	-1061.197510	367.965546	41.778603	-973.702820	261.993744	41.224281	-1082.897461	593.844482	606.676575	-1131.711670	587.167480	507.799835	-1055.996338	584.159424	534.174011	-1197.476440	587.887939	266.177368	-1089.641846	562.793579	216.862915	-982.148804	582.885498	175.869919	-1117.235229	500.151306	44.967003	-981.806946	570.560547	41.751305	-1123.312134	267.331970	433.076965	-1146.507324	366.786102	421.912537	-1163.378052	304.708557	49.634186	-993.994080	356.753174	47.574837	-1044.754761	467.445160	424.029449	-1166.014038	569.972595	439.417358	-1165.622070	490.719879	52.837898	-1062.757324	552.321594	47.567333	-1019.103943	317.059052	427.494751	-1154.942627	518.708862	431.723419	-1165.818115	330.730865	48.604511	-1019.374390	521.520752	50.202614	-1040.930664	327.221381	786.679194	-1025.030547	502.066638	791.358610	-1061.343981	
82	0.540000	445.864838	1274.267578	-966.321655	446.802612	1095.531006	-914.664062	430.021545	1210.935181	-1096.634033	425.400665	1157.630127	-1128.386353	544.594177	1177.581665	-934.670227	430.255402	875.055481	-914.192871	279.695648	870.831543	-1071.152588	523.014954	877.205627	-1121.496948	243.011612	586.595642	-1126.754639	230.964233	474.823334	-1077.653076	275.654419	532.085571	-1201.893921	282.554871	217.394882	-1032.258179	342.731384	148.622864	-949.976501	254.058014	131.978714	-1061.192139	367.937988	41.787331	-973.693726	261.951477	41.198990	-1082.869751	593.869812	606.589050	-1131.717529	587.179199	507.661163	-1056.066528	584.209717	534.128845	-1197.537598	587.916870	266.135132	-1089.737305	562.814575	216.870605	-982.210938	582.911865	175.811523	-1117.286133	500.144470	44.972752	-981.812378	570.571899	41.752499	-1123.310303	267.195374	433.038635	-1146.510620	366.675934	421.918030	-1163.376221	304.654755	49.622997	-993.963745	356.708679	47.598843	-1044.729370	467.498535	423.968414	-1166.166992	570.026855	439.349762	-1165.759399	490.724426	52.834393	-1062.764893	552.323608	47.565346	-1019.112915	316.935669	427.478333	-1154.943481	518.762695	431.659088	-1165.963135	330.681702	48.610920	-1019.346619	521.523987	50.199871	-1040.938843	327.142046	786.661084	-1025.068871	502.025260	791.242391	-1061.253355	
83	0.546667	445.949402	1274.210938	-966.383545	446.821198	1095.472534	-914.680725	430.102753	1210.819336	-1096.686890	425.462341	1157.504883	-1128.429199	544.651917	1177.490967	-934.707153	430.112946	874.982422	-914.145447	279.689972	870.839722	-1071.229980	523.057434	877.089600	-1121.401489	242.893478	586.599609	-1126.805298	230.778107	474.818268	-1077.689453	275.542542	532.084778	-1201.941040	282.447418	217.377808	-1032.264893	342.666229	148.649506	-949.944397	253.997269	131.937164	-1061.194214	367.910248	41.795795	-973.686340	261.908051	41.181267	-1082.845581	593.884460	606.511902	-1131.715942	587.174438	507.541962	-1056.120239	584.258240	534.091187	-1197.589722	587.942139	266.099792	-1089.820312	562.833069	216.873886	-982.265320	582.936829	175.759857	-1117.323730	500.139587	44.976971	-981.816895	570.583313	41.752884	-1123.308472	267.047852	433.003082	-1146.546509	366.558228	421.909088	-1163.395508	304.607849	49.606743	-993.940735	356.667908	47.620174	-1044.709961	467.540466	423.915405	-1166.299927	570.077332	439.292938	-1165.866699	490.727875	52.831100	-1062.768188	552.324768	47.563171	-1019.117981	316.803040	427.456085	-1154.970947	518.808899	431.604187	-1166.083374	330.637878	48.613461	-1019.325378	521.526367	50.197136	-1040.942993	327.062108	786.641293	-1025.111202	501.979413	791.133314	-1061.171344	
84	0.553333	446.036743	1274.153198	-966.455078	446.831635	1095.416504	-914.699402	430.189819	1210.704224	-1096.739502	425.530090	1157.382812	-1128.469238	544.706848	1177.401855	-934.742737	429.970795	874.906128	-914.110474	279.679871	870.845520	-1071.301758	523.086914	876.985107	-1121.308960	242.778732	586.596436	-1126.864502	230.562424	474.802979	-1077.781128	275.444061	532.083801	-1201.997681	282.351349	217.362152	-1032.277710	342.619415	148.677765	-949.921265	253.939392	131.896347	-1061.198608	367.884613	41.803875	-973.682373	261.864166	41.174442	-1082.824585	593.887939	606.446106	-1131.708130	587.154114	507.442169	-1056.160034	584.302429	534.062561	-1197.632812	587.962341	266.071350	-1089.887939	562.848022	216.873260	-982.312561	582.959534	175.715912	-1117.348755	500.136566	44.979492	-981.820679	570.593933	41.752666	-1123.306763	266.892242	432.983521	-1146.624390	366.438538	421.887054	-1163.443481	304.575256	49.584721	-993.927795	356.632538	47.637985	-1044.697998	467.574249	423.869934	-1166.419067	570.122375	439.248749	-1165.945679	490.730499	52.828098	-1062.769165	552.325073	47.561165	-1019.119995	316.665375	427.435272	-1155.033936	518.848328	431.559357	-1166.182373	330.603912	48.611355	-1019.312866	521.527771	50.194633	-1040.944580	326.981965	786.620847	-1025.156875	501.927552	791.033594	-1061.098889	
